<svg xmlns="http://www.w3.org/2000/svg" viewBox="0 0 14.5 18.01"><defs><style>.cls-1{fill:#fff;}</style></defs><g id="Layer_2" data-name="Layer 2"><g id="Layer_1-2" data-name="Layer 1"><path class="cls-1" d="M5.94,2.23,9.71,12a1.86,1.86,0,0,0,.49.77,1,1,0,0,0,.49.22v.31l-1.09,0H7c-.42,0-.76,0-1,0v-.31a1.5,1.5,0,0,0,1-.27c.14-.16.1-.5-.11-1L4.24,4.42,4.52,4,2.16,10.16a5.47,5.47,0,0,0-.43,1.74.85.85,0,0,0,.38.8,2.25,2.25,0,0,0,1,.24v.31l-1,0H.54l-.54,0v-.31a1.29,1.29,0,0,0,.67-.42,3.46,3.46,0,0,0,.66-1.21L4.87,2.23a4.7,4.7,0,0,0,.54,0A4.44,4.44,0,0,0,5.94,2.23ZM7,8.78v.31H2.41l.15-.31Z" transform="translate(0 -2.23)"/><path class="cls-1" d="M11.86,12.52a2.79,2.79,0,0,1,1.13.2,4.14,4.14,0,0,1,.8.48c.14.11.24.12.32,0a1.16,1.16,0,0,0,.15-.57h.24q0,.4,0,1c0,.39,0,.9,0,1.55h-.24a6.46,6.46,0,0,0-.14-.83,2.35,2.35,0,0,0-.23-.6,1.55,1.55,0,0,0-.42-.47,1.59,1.59,0,0,0-.61-.39,2,2,0,0,0-.72-.13,1.58,1.58,0,0,0-1,.3,2.18,2.18,0,0,0-.64.81,4.51,4.51,0,0,0-.37,1.16A8.36,8.36,0,0,0,10,16.4a7.37,7.37,0,0,0,.12,1.35,4.32,4.32,0,0,0,.38,1.15,2.27,2.27,0,0,0,.66.8,1.68,1.68,0,0,0,1,.29,2,2,0,0,0,.7-.13,1.86,1.86,0,0,0,.6-.38,1.58,1.58,0,0,0,.56-.79,6.87,6.87,0,0,0,.22-1.24h.24c0,.67,0,1.2,0,1.61s0,.76,0,1h-.24a1.28,1.28,0,0,0-.14-.57q-.1-.12-.33,0A6.18,6.18,0,0,1,13,20a2.72,2.72,0,0,1-1.11.2,4,4,0,0,1-1.95-.45,3.13,3.13,0,0,1-1.3-1.3,4.22,4.22,0,0,1-.46-2,4.2,4.2,0,0,1,.48-2.05A3.48,3.48,0,0,1,9.93,13,3.72,3.72,0,0,1,11.86,12.52Z" transform="translate(0 -2.23)"/></g></g></svg>